<svg width="18" height="19" viewBox="0 0 18 19" fill="none" xmlns="http://www.w3.org/2000/svg">
<g id="External">
<path id="Vector" d="M10.2857 1.78571C10.2857 1.44472 10.4212 1.1177 10.6623 0.876577C10.9034 0.635459 11.2304 0.5 11.5714 0.5H16.7143C17.0553 0.5 17.3823 0.635459 17.6234 0.876577C17.8645 1.1177 18 1.44472 18 1.78571V6.92857C18 7.26956 17.8645 7.59659 17.6234 7.83771C17.3823 8.07883 17.0553 8.21429 16.7143 8.21429C16.3733 8.21429 16.0463 8.07883 15.8051 7.83771C15.564 7.59659 15.4286 7.26956 15.4286 6.92857V4.88943L8.62329 11.6947C8.3808 11.9289 8.05602 12.0585 7.71891 12.0556C7.3818 12.0527 7.05933 11.9174 6.82095 11.6791C6.58257 11.4407 6.44735 11.1182 6.44442 10.7811C6.44149 10.444 6.57108 10.1192 6.80529 9.87671L13.6106 3.07143H11.5714C11.2304 3.07143 10.9034 2.93597 10.6623 2.69485C10.4212 2.45373 10.2857 2.12671 10.2857 1.78571ZM0 5C0 4.48851 0.203188 3.99797 0.564866 3.63629C0.926543 3.27462 1.41708 3.07143 1.92857 3.07143H6.42857C6.76956 3.07143 7.09659 3.20689 7.33771 3.44801C7.57883 3.68912 7.71429 4.01615 7.71429 4.35714C7.71429 4.69814 7.57883 5.02516 7.33771 5.26628C7.09659 5.5074 6.76956 5.64286 6.42857 5.64286H2.57143V15.9286H12.8571V12.0714C12.8571 11.7304 12.9926 11.4034 13.2337 11.1623C13.4748 10.9212 13.8019 10.7857 14.1429 10.7857C14.4838 10.7857 14.8109 10.9212 15.052 11.1623C15.2931 11.4034 15.4286 11.7304 15.4286 12.0714V16.5714C15.4286 17.0829 15.2254 17.5735 14.8637 17.9351C14.502 18.2968 14.0115 18.5 13.5 18.5H1.92857C1.41708 18.5 0.926543 18.2968 0.564866 17.9351C0.203188 17.5735 0 17.0829 0 16.5714V5Z" fill="#4BC688"/>
</g>
</svg>
