<svg width="16" height="16" viewBox="0 0 16 16" fill="none" xmlns="http://www.w3.org/2000/svg">
<g id="Icon">
<g id="element-plus">
<path id="Vector" d="M14.6667 5.51334V2.82001C14.6667 1.76001 14.24 1.33334 13.18 1.33334H10.4867C9.42667 1.33334 9 1.76001 9 2.82001V5.51334C9 6.57334 9.42667 7.00001 10.4867 7.00001H13.18C14.24 7.00001 14.6667 6.57334 14.6667 5.51334Z" stroke="#E1DEFA" stroke-linecap="round" stroke-linejoin="round"/>
<path id="Vector_2" d="M6.99992 5.68001V2.65334C6.99992 1.71334 6.57325 1.33334 5.51325 1.33334H2.81992C1.75992 1.33334 1.33325 1.71334 1.33325 2.65334V5.67334C1.33325 6.62001 1.75992 6.99334 2.81992 6.99334H5.51325C6.57325 7.00001 6.99992 6.62001 6.99992 5.68001Z" stroke="#E1DEFA" stroke-linecap="round" stroke-linejoin="round"/>
<path id="Vector_3" d="M6.99992 13.18V10.4867C6.99992 9.42667 6.57325 9 5.51325 9H2.81992C1.75992 9 1.33325 9.42667 1.33325 10.4867V13.18C1.33325 14.24 1.75992 14.6667 2.81992 14.6667H5.51325C6.57325 14.6667 6.99992 14.24 6.99992 13.18Z" stroke="#E1DEFA" stroke-linecap="round" stroke-linejoin="round"/>
<path id="Vector_4" d="M9.66675 11.6667H13.6667" stroke="#E1DEFA" stroke-linecap="round"/>
<path id="Vector_5" d="M11.6667 13.6667V9.66666" stroke="#E1DEFA" stroke-linecap="round"/>
</g>
</g>
</svg>
