<svg width="16" height="16" viewBox="0 0 16 16" fill="none" xmlns="http://www.w3.org/2000/svg">
<g id="Icon">
<g id="global">
<g id="global_2">
<path id="Vector" d="M7.99992 14.6667C11.6818 14.6667 14.6666 11.6819 14.6666 7.99999C14.6666 4.3181 11.6818 1.33333 7.99992 1.33333C4.31802 1.33333 1.33325 4.3181 1.33325 7.99999C1.33325 11.6819 4.31802 14.6667 7.99992 14.6667Z" stroke="#E1DEFA" stroke-linecap="round" stroke-linejoin="round"/>
<path id="Vector_2" d="M5.33324 2H5.9999C4.6999 5.89333 4.6999 10.1067 5.9999 14H5.33324" stroke="#E1DEFA" stroke-linecap="round" stroke-linejoin="round"/>
<path id="Vector_3" d="M10 2C11.3 5.89333 11.3 10.1067 10 14" stroke="#E1DEFA" stroke-linecap="round" stroke-linejoin="round"/>
<path id="Vector_4" d="M2 10.6667V10C5.89333 11.3 10.1067 11.3 14 10V10.6667" stroke="#E1DEFA" stroke-linecap="round" stroke-linejoin="round"/>
<path id="Vector_5" d="M2 5.99998C5.89333 4.69998 10.1067 4.69998 14 5.99998" stroke="#E1DEFA" stroke-linecap="round" stroke-linejoin="round"/>
</g>
</g>
</g>
</svg>
