<svg width="16" height="16" viewBox="0 0 16 16" fill="none" xmlns="http://www.w3.org/2000/svg">
<g id="Icon" clip-path="url(#clip0_653_1070)">
<g id="Information Circle">
<g id="Vector">
<path d="M8.49992 7.33333C8.49992 7.05719 8.27606 6.83333 7.99992 6.83333C7.72378 6.83333 7.49992 7.05719 7.49992 7.33333V11.3333C7.49992 11.6095 7.72378 11.8333 7.99992 11.8333C8.27606 11.8333 8.49992 11.6095 8.49992 11.3333V7.33333Z" fill="#E1DEFA"/>
<path fill-rule="evenodd" clip-rule="evenodd" d="M7.99992 0.833328C4.04188 0.833328 0.833252 4.04195 0.833252 7.99999C0.833252 11.958 4.04188 15.1667 7.99992 15.1667C11.958 15.1667 15.1666 11.958 15.1666 7.99999C15.1666 4.04195 11.958 0.833328 7.99992 0.833328ZM1.83325 7.99999C1.83325 4.59424 4.59416 1.83333 7.99992 1.83333C11.4057 1.83333 14.1666 4.59424 14.1666 7.99999C14.1666 11.4058 11.4057 14.1667 7.99992 14.1667C4.59416 14.1667 1.83325 11.4058 1.83325 7.99999Z" fill="#E1DEFA"/>
<path d="M8.66658 5.33333C8.66658 5.70152 8.36811 5.99999 7.99992 5.99999C7.63173 5.99999 7.33325 5.70152 7.33325 5.33333C7.33325 4.96514 7.63173 4.66666 7.99992 4.66666C8.36811 4.66666 8.66658 4.96514 8.66658 5.33333Z" fill="#E1DEFA"/>
</g>
</g>
</g>
<defs>
<clipPath id="clip0_653_1070">
<rect width="16" height="16" fill="white"/>
</clipPath>
</defs>
</svg>
