<svg width="16" height="18" viewBox="0 0 16 18" fill="none" xmlns="http://www.w3.org/2000/svg">
<g id="Icon">
<g id="Chart" opacity="0.8">
<path id="Vector" d="M5.55556 2.77778H3.77778C3.30628 2.77778 2.8541 2.96508 2.5207 3.29848C2.1873 3.63187 2 4.08406 2 4.55556V15.2222C2 15.6937 2.1873 16.1459 2.5207 16.4793C2.8541 16.8127 3.30628 17 3.77778 17H12.6667C13.1382 17 13.5903 16.8127 13.9237 16.4793C14.2571 16.1459 14.4444 15.6937 14.4444 15.2222V4.55556C14.4444 4.08406 14.2571 3.63187 13.9237 3.29848C13.5903 2.96508 13.1382 2.77778 12.6667 2.77778H10.8889M5.55556 2.77778C5.55556 3.24927 5.74286 3.70146 6.07625 4.03486C6.40965 4.36825 6.86184 4.55556 7.33333 4.55556H9.11111C9.58261 4.55556 10.0348 4.36825 10.3682 4.03486C10.7016 3.70146 10.8889 3.24927 10.8889 2.77778M5.55556 2.77778C5.55556 2.30628 5.74286 1.8541 6.07625 1.5207C6.40965 1.1873 6.86184 1 7.33333 1H9.11111C9.58261 1 10.0348 1.1873 10.3682 1.5207C10.7016 1.8541 10.8889 2.30628 10.8889 2.77778M8.22222 9H10.8889M8.22222 12.5556H10.8889M5.55556 9H5.56444M5.55556 12.5556H5.56444" stroke="#E1DEFA" stroke-width="1.5" stroke-linecap="round" stroke-linejoin="round"/>
</g>
</g>
</svg>
