<svg width="16" height="16" viewBox="0 0 16 16" fill="none" xmlns="http://www.w3.org/2000/svg">
<g id="Icon">
<g id="dollar-circle">
<path id="Vector" d="M5.78125 9.55323C5.78125 10.4132 6.44125 11.1066 7.26125 11.1066H8.93458C9.64792 11.1066 10.2279 10.4999 10.2279 9.75323C10.2279 8.9399 9.87458 8.65323 9.34792 8.46657L6.66125 7.53323C6.13458 7.34657 5.78125 7.0599 5.78125 6.24657C5.78125 5.4999 6.36125 4.89323 7.07458 4.89323H8.74792C9.56792 4.89323 10.2279 5.58657 10.2279 6.44657" stroke="#E1DEFA" stroke-linecap="round" stroke-linejoin="round"/>
<path id="Vector_2" d="M8 4V12" stroke="#E1DEFA" stroke-linecap="round" stroke-linejoin="round"/>
<path id="Vector_3" d="M7.99992 14.6667C11.6818 14.6667 14.6666 11.6819 14.6666 7.99999C14.6666 4.3181 11.6818 1.33333 7.99992 1.33333C4.31802 1.33333 1.33325 4.3181 1.33325 7.99999C1.33325 11.6819 4.31802 14.6667 7.99992 14.6667Z" stroke="#E1DEFA" stroke-linecap="round" stroke-linejoin="round"/>
</g>
</g>
</svg>
