<svg width="16" height="16" viewBox="0 0 16 16" fill="none" xmlns="http://www.w3.org/2000/svg">
<g id="Icon" clip-path="url(#clip0_653_1046)">
<g id="Icon_2">
<path id="Vector" d="M0.259824 0.00193393C0.105289 0.036747 -0.00379482 0.17471 0.000101108 0.332013V12.1117C0.000101108 13.5133 0.733818 14.3036 1.45455 14.6595C2.17528 15.0154 2.88822 14.9999 2.88822 14.9999H13.1109V14.969C13.2706 14.987 13.4434 14.9999 13.4434 14.9999C13.4434 14.9999 14.0823 15.0038 14.7212 14.6389C15.3445 14.283 15.9588 13.53 15.9886 12.2252C15.9925 12.2187 15.9964 12.211 15.999 12.2045C15.999 12.1968 15.999 12.1917 15.999 12.1839C16.0003 12.1672 16.0003 12.1491 15.999 12.1323V3.84942C15.999 3.84555 15.999 3.84297 15.999 3.8391C15.999 3.8391 16.0042 3.45229 15.8016 3.05517C15.5991 2.65804 15.1277 2.22997 14.3887 2.22997V2.21965H11.2409V2.87981H13.0901C13.0499 2.93654 13.0161 2.98812 12.9862 3.04485C12.7837 3.43811 12.7785 3.82879 12.7785 3.82879V11.8332C12.7772 11.9518 12.8395 12.0627 12.9434 12.1233C13.0473 12.1826 13.1745 12.1826 13.2784 12.1233C13.3823 12.0627 13.4447 11.9518 13.4434 11.8332V3.82879C13.4434 3.81976 13.4563 3.58123 13.5784 3.34398C13.7031 3.10287 13.8784 2.89013 14.3887 2.89013C14.8978 2.89013 15.0731 3.10803 15.1991 3.3543C15.3224 3.5967 15.3445 3.84039 15.3445 3.84942H15.3341V12.1323C15.3341 13.307 14.8614 13.8021 14.3887 14.0716C13.916 14.341 13.4434 14.3397 13.4434 14.3397C13.4434 14.3397 12.8811 14.332 12.3214 14.0509C11.7616 13.7698 11.2201 13.276 11.2201 12.1117V0.332013C11.2201 0.150212 11.0708 0.00193393 10.8877 0.00193393H0.332546C0.307873 -0.000644644 0.284498 -0.000644644 0.259824 0.00193393ZM0.664991 0.662092H10.5552V12.1117C10.5552 13.1974 11.0188 13.9078 11.563 14.3397H2.88822C2.88432 14.3397 2.88173 14.3397 2.87783 14.3397C2.87783 14.3397 2.73498 14.341 2.52461 14.3088C2.41942 14.292 2.30254 14.265 2.17138 14.2263C2.04022 14.1876 1.89478 14.1399 1.75583 14.0716C1.6857 14.0367 1.61558 14.0006 1.54805 13.9581C1.07276 13.6615 0.664991 13.1497 0.664991 12.1117V0.662092ZM1.99477 2.71477C1.81167 2.74056 1.6831 2.90947 1.70908 3.09127C1.73505 3.27307 1.90517 3.40072 2.08827 3.37493H8.64368C8.76315 3.37622 8.87483 3.31433 8.93586 3.21118C8.9956 3.10803 8.9956 2.98167 8.93586 2.87852C8.87483 2.77537 8.76315 2.71348 8.64368 2.71477H2.08827C2.07788 2.71477 2.06749 2.71477 2.05711 2.71477C2.04672 2.71477 2.03633 2.71477 2.02594 2.71477C2.01555 2.71477 2.00516 2.71477 1.99477 2.71477ZM1.99477 4.03509C1.81167 4.06087 1.6831 4.22978 1.70908 4.41158C1.73505 4.59339 1.90517 4.72103 2.08827 4.69525H8.64368C8.76315 4.69653 8.87483 4.63464 8.93586 4.5315C8.9956 4.42835 8.9956 4.30199 8.93586 4.19884C8.87483 4.09569 8.76315 4.0338 8.64368 4.03509H2.08827C2.07788 4.03509 2.06749 4.03509 2.05711 4.03509C2.04672 4.03509 2.03633 4.03509 2.02594 4.03509C2.01555 4.03509 2.00516 4.03509 1.99477 4.03509ZM2.15061 6.67572C1.9675 6.70151 1.83894 6.87041 1.86491 7.05222C1.89088 7.23402 2.061 7.36167 2.24411 7.33588H4.4985C4.61797 7.33717 4.72965 7.27528 4.79069 7.17213C4.85042 7.06898 4.85042 6.94262 4.79069 6.83947C4.72965 6.73632 4.61797 6.67443 4.4985 6.67572H2.24411C2.23372 6.67572 2.22333 6.67572 2.21294 6.67572C2.20255 6.67572 2.19216 6.67572 2.18177 6.67572C2.17138 6.67572 2.16099 6.67572 2.15061 6.67572ZM5.98411 6.67572C5.80101 6.70151 5.67245 6.87041 5.69842 7.05222C5.72439 7.23402 5.89451 7.36167 6.07761 7.33588H8.64368C8.76315 7.33717 8.87483 7.27528 8.93586 7.17213C8.9956 7.06898 8.9956 6.94262 8.93586 6.83947C8.87483 6.73632 8.76315 6.67443 8.64368 6.67572H6.07761C6.06723 6.67572 6.05684 6.67572 6.04645 6.67572C6.03606 6.67572 6.02567 6.67572 6.01528 6.67572C6.00489 6.67572 5.9945 6.67572 5.98411 6.67572ZM2.15061 7.99604C1.9675 8.02182 1.83894 8.19073 1.86491 8.37253C1.89088 8.55433 2.061 8.68198 2.24411 8.65619H4.4985C4.61797 8.65748 4.72965 8.59559 4.79069 8.49244C4.85042 8.38929 4.85042 8.26294 4.79069 8.15979C4.72965 8.05664 4.61797 7.99475 4.4985 7.99604H2.24411C2.23372 7.99604 2.22333 7.99604 2.21294 7.99604C2.20255 7.99604 2.19216 7.99604 2.18177 7.99604C2.17138 7.99604 2.16099 7.99604 2.15061 7.99604ZM5.98411 7.99604C5.80101 8.02182 5.67245 8.19073 5.69842 8.37253C5.72439 8.55433 5.89451 8.68198 6.07761 8.65619H8.64368C8.76315 8.65748 8.87483 8.59559 8.93586 8.49244C8.9956 8.38929 8.9956 8.26294 8.93586 8.15979C8.87483 8.05664 8.76315 7.99475 8.64368 7.99604H6.07761C6.06723 7.99604 6.05684 7.99604 6.04645 7.99604C6.03606 7.99604 6.02567 7.99604 6.01528 7.99604C6.00489 7.99604 5.9945 7.99604 5.98411 7.99604ZM5.98411 9.24415C5.80101 9.26993 5.67245 9.43884 5.69842 9.62064C5.72439 9.80245 5.89451 9.93009 6.07761 9.90431H8.64368C8.76315 9.90559 8.87483 9.84371 8.93586 9.74056C8.9956 9.63741 8.9956 9.51105 8.93586 9.4079C8.87483 9.30475 8.76315 9.24286 8.64368 9.24415H6.07761C6.05684 9.24157 6.03606 9.24157 6.01528 9.24415C6.00489 9.24415 5.9945 9.24415 5.98411 9.24415ZM2.15061 9.31635C1.9675 9.34214 1.83894 9.51105 1.86491 9.69285C1.89088 9.87465 2.061 10.0023 2.24411 9.97651H4.4985C4.61797 9.9778 4.72965 9.91591 4.79069 9.81276C4.85042 9.70961 4.85042 9.58325 4.79069 9.4801C4.72965 9.37695 4.61797 9.31506 4.4985 9.31635H2.24411C2.23372 9.31635 2.22333 9.31635 2.21294 9.31635C2.20255 9.31635 2.19216 9.31635 2.18177 9.31635C2.17138 9.31635 2.16099 9.31635 2.15061 9.31635ZM5.98411 10.5645C5.80101 10.5903 5.67245 10.7592 5.69842 10.941C5.72439 11.1228 5.89451 11.2504 6.07761 11.2246H8.64368C8.76315 11.2259 8.87483 11.164 8.93586 11.0609C8.9956 10.9577 8.9956 10.8314 8.93586 10.7282C8.87483 10.6251 8.76315 10.5632 8.64368 10.5645H6.07761C6.05684 10.5619 6.03606 10.5619 6.01528 10.5645C6.00489 10.5645 5.9945 10.5645 5.98411 10.5645ZM2.15061 10.6367C1.9675 10.6625 1.83894 10.8314 1.86491 11.0132C1.89088 11.195 2.061 11.3226 2.24411 11.2968H4.4985C4.61797 11.2981 4.72965 11.2362 4.79069 11.1331C4.85042 11.0299 4.85042 10.9036 4.79069 10.8004C4.72965 10.6973 4.61797 10.6354 4.4985 10.6367H2.24411C2.23372 10.6367 2.22333 10.6367 2.21294 10.6367C2.20255 10.6367 2.19216 10.6367 2.18177 10.6367C2.17138 10.6367 2.16099 10.6367 2.15061 10.6367ZM5.98411 11.8023C5.80101 11.828 5.67245 11.997 5.69842 12.1788C5.72439 12.3606 5.89451 12.4882 6.07761 12.4624H8.64368C8.76315 12.4637 8.87483 12.4018 8.93586 12.2987C8.9956 12.1955 8.9956 12.0692 8.93586 11.966C8.87483 11.8629 8.76315 11.801 8.64368 11.8023H6.07761C6.06723 11.8023 6.05684 11.8023 6.04645 11.8023C6.03606 11.8023 6.02567 11.8023 6.01528 11.8023C6.00489 11.8023 5.9945 11.8023 5.98411 11.8023ZM2.15061 11.957C1.9675 11.9828 1.83894 12.1517 1.86491 12.3335C1.89088 12.5153 2.061 12.6429 2.24411 12.6171H4.4985C4.61797 12.6184 4.72965 12.5565 4.79069 12.4534C4.85042 12.3502 4.85042 12.2239 4.79069 12.1207C4.72965 12.0176 4.61797 11.9557 4.4985 11.957H2.24411C2.23372 11.957 2.22333 11.957 2.21294 11.957C2.20255 11.957 2.19216 11.957 2.18177 11.957C2.17138 11.957 2.16099 11.957 2.15061 11.957Z" fill="#E1DEFA"/>
</g>
</g>
<defs>
<clipPath id="clip0_653_1046">
<rect width="16" height="16" fill="white"/>
</clipPath>
</defs>
</svg>
