<svg width="20" height="21" viewBox="0 0 20 21" fill="none" xmlns="http://www.w3.org/2000/svg">
<g id="Menu">
<g id="Menu Kebab">
<g id="Vector">
<path d="M11.6666 10.5C11.6666 11.4204 10.9205 12.1666 9.99998 12.1666C9.07951 12.1666 8.33331 11.4204 8.33331 10.5C8.33331 9.57948 9.07951 8.83329 9.99998 8.83329C10.9205 8.83329 11.6666 9.57948 11.6666 10.5Z" fill="#E8E8E8"/>
<path d="M11.6666 3.83329C11.6666 4.75377 10.9205 5.49996 9.99998 5.49996C9.07951 5.49996 8.33331 4.75377 8.33331 3.83329C8.33331 2.91282 9.07951 2.16663 9.99998 2.16663C10.9205 2.16663 11.6666 2.91282 11.6666 3.83329Z" fill="#E8E8E8"/>
<path d="M11.6666 17.1666C11.6666 18.0871 10.9205 18.8333 9.99998 18.8333C9.0795 18.8333 8.33331 18.0871 8.33331 17.1666C8.33331 16.2461 9.0795 15.5 9.99998 15.5C10.9205 15.5 11.6666 16.2461 11.6666 17.1666Z" fill="#E8E8E8"/>
</g>
</g>
</g>
</svg>
