<svg width="21" height="22" viewBox="0 0 21 22" fill="none" xmlns="http://www.w3.org/2000/svg">
<g id="Notification-Icon">
<path id="Vector" d="M4.375 15.875H16.625V9.77713C16.625 6.3795 13.8827 3.625 10.5 3.625C7.11725 3.625 4.375 6.3795 4.375 9.77713V15.875ZM10.5 1.875C14.8488 1.875 18.375 5.41263 18.375 9.77713V17.625H2.625V9.77713C2.625 5.41263 6.15125 1.875 10.5 1.875ZM8.3125 18.5H12.6875C12.6875 19.0802 12.457 19.6366 12.0468 20.0468C11.6366 20.457 11.0802 20.6875 10.5 20.6875C9.91984 20.6875 9.36344 20.457 8.9532 20.0468C8.54297 19.6366 8.3125 19.0802 8.3125 18.5Z" fill="white"/>
</g>
</svg>
