<svg width="20" height="14" viewBox="0 0 20 14" fill="none" xmlns="http://www.w3.org/2000/svg">
<path id="Vector" d="M1.11111 13.6667H18.8889C19.5 13.6667 20 13.1667 20 12.5556C20 11.9445 19.5 11.4445 18.8889 11.4445H1.11111C0.5 11.4445 0 11.9445 0 12.5556C0 13.1667 0.5 13.6667 1.11111 13.6667ZM1.11111 8.11115H18.8889C19.5 8.11115 20 7.61115 20 7.00004C20 6.38893 19.5 5.88893 18.8889 5.88893H1.11111C0.5 5.88893 0 6.38893 0 7.00004C0 7.61115 0.5 8.11115 1.11111 8.11115ZM0 1.44449C0 2.0556 0.5 2.5556 1.11111 2.5556H18.8889C19.5 2.5556 20 2.0556 20 1.44449C20 0.833374 19.5 0.333374 18.8889 0.333374H1.11111C0.5 0.333374 0 0.833374 0 1.44449Z" fill="white"/>
</svg>
