<svg width="14" height="14" viewBox="0 0 14 14" fill="none" xmlns="http://www.w3.org/2000/svg">
<g id="Page-1">
<g id="twitter-newui-iconkit">
<path id="twitter-verified" fill-rule="evenodd" clip-rule="evenodd" d="M4.17188 7.55469C4.17188 7.69531 4.21875 7.8125 4.3125 7.90625L5.92188 9.51562C6.05208 9.61979 6.19271 9.67188 6.34375 9.67188C6.48958 9.67188 6.60937 9.59375 6.70312 9.4375L9.59375 5.10938C9.66667 4.99479 9.6901 4.86979 9.66406 4.73438C9.63802 4.59896 9.56771 4.49479 9.45312 4.42188C9.33854 4.34896 9.21354 4.32292 9.07812 4.34375C8.94271 4.36458 8.83333 4.43229 8.75 4.54688L6.20312 8.375L5.03125 7.20312C4.92708 7.09896 4.80729 7.04948 4.67188 7.05469C4.53646 7.0599 4.41927 7.10937 4.32031 7.20312C4.22135 7.29688 4.17188 7.41406 4.17188 7.55469ZM14 7.30469C14 7.8099 13.8828 8.27083 13.6484 8.6875C13.4141 9.10417 13.099 9.42708 12.7031 9.65625C12.7135 9.72917 12.7188 9.84375 12.7188 10C12.7188 10.7396 12.4714 11.3698 11.9766 11.8906C11.4818 12.4115 10.8854 12.6719 10.1875 12.6719C9.875 12.6719 9.57813 12.6146 9.29688 12.5C9.07812 12.9479 8.76302 13.3099 8.35156 13.5859C7.9401 13.862 7.48698 14 6.99219 14C6.49739 14 6.04688 13.8646 5.64062 13.5938C5.23437 13.3229 4.92188 12.9583 4.70312 12.5C4.42187 12.6146 4.125 12.6719 3.8125 12.6719C3.11458 12.6719 2.51563 12.4115 2.01562 11.8906C1.51562 11.3698 1.26562 10.7396 1.26562 10C1.26562 9.91667 1.27604 9.80208 1.29688 9.65625C0.90104 9.42708 0.585939 9.10417 0.351562 8.6875C0.117186 8.27083 0 7.8099 0 7.30469C0 6.79948 0.130207 6.33073 0.390625 5.89844C0.651043 5.46614 0.999998 5.14583 1.4375 4.9375C1.32292 4.625 1.26562 4.3125 1.26562 4C1.26562 3.26041 1.51562 2.63021 2.01562 2.10938C2.51563 1.58854 3.11458 1.32812 3.8125 1.32812C4.125 1.32812 4.42187 1.38542 4.70312 1.5C4.92188 1.05208 5.23698 0.690106 5.64844 0.414062C6.0599 0.13802 6.51041 0 7 0C7.48959 0 7.9401 0.13802 8.35156 0.414062C8.76302 0.690106 9.07812 1.05208 9.29688 1.5C9.57813 1.38542 9.875 1.32812 10.1875 1.32812C10.8854 1.32812 11.4818 1.58854 11.9766 2.10938C12.4714 2.63021 12.7188 3.26041 12.7188 4C12.7188 4.34375 12.6667 4.65625 12.5625 4.9375C13 5.14583 13.349 5.46614 13.6094 5.89844C13.8698 6.33073 14 6.79948 14 7.30469Z" fill="#4A99E9"/>
</g>
</g>
</svg>
